<svg width="230" height="42" viewBox="0 0 230 42" fill="none" xmlns="http://www.w3.org/2000/svg">
<path d="M13.168 30.768L0.784 18.336L13.168 5.856L15.664 8.352L5.728 18.336L15.664 28.272L13.168 30.768ZM19.3439 36L31.2959 0.623998H38.0639L50.0159 36H45.4559L42.4319 26.784H26.9279L23.9519 36H19.3439ZM28.2239 22.944H41.1839L35.2319 4.752H34.1279L28.2239 22.944ZM54.6235 36V10.896H58.8475V15.408L63.2155 10.896H72.4795L77.4715 15.936V36H73.2475V16.992L70.7035 14.256H64.3195L58.8475 19.824V36H54.6235ZM89.8443 36L84.8523 30.96V10.896H89.0763L89.0283 29.952L91.6203 32.64H97.8603L102.804 27.696V10.896H107.028V36H102.804V32.112L98.9643 36H89.8443ZM114.858 36V32.496H128.154L130.41 30.192V27.168L128.01 24.768H118.074L113.658 20.448V15.36L118.074 10.896H132.234V14.448H120.09L117.882 16.608V19.056L120.186 21.36H130.218L134.634 25.68V31.584L130.266 36H114.858ZM141.295 36V0.623998H145.519V14.88L149.359 10.896H158.623L163.615 15.936V36H159.391V16.992L156.847 14.256H150.463L145.519 19.296V36H141.295ZM171.249 8.16V2.496H175.473V8.16H171.249ZM171.249 36V10.896H175.473V36H171.249ZM183.295 36V0.623998H187.519V36H183.295ZM192.03 41.232L206.862 0.623998H211.278L196.446 41.232H192.03ZM217.411 30.768L214.915 28.272L224.851 18.336L214.915 8.352L217.411 5.856L229.843 18.336L217.411 30.768Z" fill="#2B5E2A"/>
</svg>
